#N canvas 0 128 1148 586 10;
#N canvas 753 576 582 342 rotate 0;
#X msg 192 122 centerx \$1;
#X floatatom 192 93 5 0 0 0 - - -;
#X floatatom 276 93 5 0 0 0 - - -;
#X msg 276 122 centery \$1;
#X msg 244 61 0.5;
#X floatatom 196 213 5 0 0 0 - - -;
#X obj 39 194 pdp_rotate;
#X text 248 207 right inlet sets rotation angle;
#X obj 335 41 inlet;
#X obj 41 305 outlet;
#X obj 41 21 inlet;
#X obj 126 21 inlet;
#X obj 70 131 countund 360;
#X obj 112 92 metro 10;
#X connect 0 0 6 0;
#X connect 1 0 0 0;
#X connect 2 0 3 0;
#X connect 3 0 6 0;
#X connect 4 0 1 0;
#X connect 4 0 2 0;
#X connect 5 0 6 1;
#X connect 6 0 9 0;
#X connect 8 0 5 0;
#X connect 10 0 6 0;
#X connect 11 0 13 0;
#X connect 12 0 5 0;
#X connect 13 0 12 0;
#X restore 617 206 pd rotate;
#X obj 196 126 tgl 15 0 empty empty empty 0 -6 0 8 -262144 -1 -1 0
1;
#X obj 614 183 pdp_spigot;
#X obj 142 126 tgl 15 0 empty aging empty 0 -6 0 8 -260818 -1 -1 0
1;
#N canvas 553 540 650 443 zoom 0;
#X obj 103 334 pdp_zoom;
#X floatatom 214 325 5 0 0 0 - - -;
#X floatatom 274 170 5 0 0 0 - - -;
#X msg 187 200 zoomx \$1;
#X msg 270 197 zoomy \$1;
#X floatatom 187 169 5 0 0 0 - - -;
#X msg 362 267 centerx \$1;
#X floatatom 382 173 5 0 0 0 - - -;
#X floatatom 466 173 5 0 0 0 - - -;
#X msg 466 202 centery \$1;
#X msg 434 141 0.5;
#X msg 221 274 1;
#X obj 420 59 inlet;
#X obj 27 71 inlet;
#X obj 61 376 outlet;
#X obj 167 28 inlet;
#X obj 173 70 metro 300;
#X obj 159 102 countund 5;
#X connect 0 0 14 0;
#X connect 1 0 0 1;
#X connect 2 0 4 0;
#X connect 3 0 0 0;
#X connect 4 0 0 0;
#X connect 5 0 3 0;
#X connect 6 0 0 0;
#X connect 7 0 6 0;
#X connect 8 0 9 0;
#X connect 9 0 0 0;
#X connect 10 0 7 0;
#X connect 10 0 8 0;
#X connect 11 0 1 0;
#X connect 12 0 1 0;
#X connect 13 0 0 0;
#X connect 15 0 16 0;
#X connect 16 0 17 0;
#X connect 17 0 1 0;
#X restore 733 208 pd zoom;
#X obj 718 182 pdp_spigot;
#X obj 805 191 pdp_spigot;
#N canvas 86 569 450 300 disintegration 0;
#X obj 150 40 inlet;
#X obj 316 59 inlet;
#X obj 373 46 inlet;
#X floatatom 205 189 5 0 0 0 - - -;
#X floatatom 276 189 5 0 0 0 - - -;
#X obj 114 224 pdp_disintegration ----;
#X msg 216 137 -3;
#X msg 280 150 7;
#X msg 94 147 0;
#X msg 161 128 10;
#X obj 23 72 inlet;
#X obj 28 272 outlet;
#X connect 0 0 6 0;
#X connect 0 0 7 0;
#X connect 1 0 3 0;
#X connect 2 0 4 0;
#X connect 3 0 5 1;
#X connect 4 0 5 2;
#X connect 5 0 11 0;
#X connect 6 0 3 0;
#X connect 7 0 4 0;
#X connect 8 0 3 0;
#X connect 9 0 4 0;
#X connect 10 0 5 0;
#X restore 804 212 pd disintegration;
#X obj 114 362 pdp_spigot;
#N canvas 89 445 493 390 wharhol 0;
#X obj 146 112 inlet;
#X floatatom 194 179 5 0 0 0 - - -;
#X obj 180 293 pdp_warhol;
#X floatatom 225 197 5 0 0 0 - - -;
#X text 238 175 X Divider;
#X text 275 196 Y Divider;
#X obj 241 218 hdl 15 1 0 9 empty empty empty 0 -6 0 8 -262144 -1 -1
0;
#X floatatom 264 240 5 0 0 0 - - -;
#X floatatom 290 261 5 0 0 0 - - -;
#X floatatom 316 286 5 0 0 0 - - -;
#X text 311 240 Y component;
#X text 339 260 U component;
#X text 362 285 V component;
#X floatatom 378 219 5 0 0 0 - - -;
#X obj 191 341 outlet;
#X connect 0 0 2 0;
#X connect 1 0 2 1;
#X connect 2 0 14 0;
#X connect 3 0 2 2;
#X connect 6 0 2 3;
#X connect 6 0 13 0;
#X connect 7 0 2 4;
#X connect 8 0 2 5;
#X connect 9 0 2 6;
#X restore 115 390 pd wharhol;
#N canvas 481 248 752 582 ascii 0;
#X obj 606 530 tgl 15 0 empty empty empty 0 -6 0 8 -262144 -1 -1 0
1;
#X obj 606 582 pdp_control;
#X msg 606 555 thread \$1;
#X floatatom 606 643 5 0 0 0 - - -;
#X obj 606 614 route pdp_drop;
#X text 226 604 written by Yves Degoyon (ydegoyon@free.fr);
#X text 225 589 pdp_aa : output images in ASCII art;
#X msg 302 347 color \$1;
#X obj 373 348 tgl 15 0 empty empty empty 0 -6 0 8 -262144 -1 -1 0
1;
#X msg 302 372 brightness \$1;
#X floatatom 404 373 5 0 0 0 - - -;
#X floatatom 302 398 5 0 0 0 - - -;
#X obj 366 300 openpanel;
#X obj 438 301 bng 15 250 50 0 empty empty empty 0 -6 0 8 -262144 -1
-1;
#X msg 304 300 load \$1;
#X text 304 321 ( file with the same format than charmaps.dat );
#X obj 191 413 pdp_ascii;
#X text 352 397 Character to pixel ratio;
#X text 452 374 Increase brightness ( default 25 );
#X text 393 347 Activate/suppress colors;
#X text 462 300 Load a characters map;
#X obj 109 242 inlet;
#X obj 176 499 outlet;
#X connect 0 0 2 0;
#X connect 1 0 4 0;
#X connect 2 0 1 0;
#X connect 4 0 3 0;
#X connect 7 0 16 0;
#X connect 8 0 7 0;
#X connect 9 0 16 0;
#X connect 10 0 9 0;
#X connect 11 0 16 1;
#X connect 12 0 14 0;
#X connect 13 0 12 0;
#X connect 14 0 16 0;
#X connect 16 0 22 0;
#X connect 21 0 16 0;
#X restore 216 391 pd ascii;
#X obj 218 362 pdp_spigot;
#X obj 699 466 outlet;
#X obj 35 27 inlet;
#X obj 147 154 hsl 64 15 0 360 0 0 empty empty empty -2 -6 0 8 -166441
-1 -1 0 1;
#X text 141 109 Rotate;
#X text 195 109 Auto;
#X obj 286 124 tgl 15 0 empty empty empty 0 -6 0 8 -262144 -1 -1 0
1;
#X obj 232 124 tgl 15 0 empty aging empty 0 -6 0 8 -260818 -1 -1 0
1;
#X obj 237 154 hsl 64 15 1 5 0 0 empty empty empty -2 -6 0 8 -166441
-1 -1 0 1;
#X text 285 107 Auto;
#X text 231 107 Zoom;
#X obj 378 124 tgl 15 0 empty empty empty 0 -6 0 8 -262144 -1 -1 0
1;
#X obj 324 124 tgl 15 0 empty aging empty 0 -6 0 8 -260818 -1 -1 0
1;
#X text 377 107 Auto;
#X text 322 107 Disint;
#X obj 140 220 tgl 15 0 empty empty empty 0 -6 0 8 -260818 -1 -1 0
1;
#X obj 141 186 tgl 15 0 empty empty empty 0 -6 0 8 -260818 -1 -1 0
1;
#X text 142 171 Ascii;
#X obj 329 154 hsl 64 15 0 10 0 0 empty empty empty -2 -6 0 8 -166441
-1 -1 0 1;
#X obj 205 18 inlet;
#X obj 261 130 tgl 10 0 empty aging empty 0 -6 0 8 -250685 -1 -1 0
1;
#X floatatom 205 55 5 0 0 0 - - -;
#X obj 204 36 spigot;
#X msg 250 54 1;
#X text 248 140 Sound;
#X obj 105 18 inlet;
#X obj 171 130 tgl 10 0 empty aging empty 0 -6 0 8 -250685 -1 -1 0
1;
#X floatatom 105 55 5 0 0 0 - - -;
#X obj 104 36 spigot;
#X msg 150 54 1;
#X obj 335 18 inlet;
#X obj 355 130 tgl 10 0 empty aging empty 0 -6 0 8 -250685 -1 -1 0
1;
#X floatatom 335 55 5 0 0 0 - - -;
#X obj 334 36 spigot;
#X text 343 140 Sound;
#X text 158 140 Sound;
#X obj 517 36 % 5;
#X msg 380 54 0;
#X obj 90 74 * 100;
#X obj 138 77 % 360;
#X obj 200 70 % 5;
#X obj 183 221 tgl 15 0 empty edge empty 0 -6 0 8 -260818 -1 -1 0 1
;
#X obj 311 361 pdp_spigot;
#X obj 307 391 pdp_edge;
#X obj 183 186 tgl 15 0 empty aging empty 0 -6 0 8 -260818 -1 -1 0
1;
#X obj 433 343 pdp_spigot;
#X floatatom 432 393 5 0 0 0 - ag1 -;
#X floatatom 473 394 5 0 0 0 - ag2 -;
#X obj 432 370 pdp_aging;
#X text 182 171 Aging;
#X obj 668 345 pdp_spigot;
#X obj 668 368 pdp_quark;
#X obj 555 343 pdp_spigot;
#X floatatom 556 405 5 0 0 0 - radi1 -;
#X obj 555 366 pdp_radioactiv;
#X obj 419 186 hdl 15 1 0 4 empty empty empty 0 -6 0 8 -262144 -1 -1
0;
#X floatatom 600 404 5 0 0 0 - radi2 -;
#X obj 759 348 pdp_spigot;
#X obj 763 373 pdp_shagadelic;
#X floatatom 763 395 5 0 0 0 - shaga1 -;
#X obj 808 394 * 100;
#X floatatom 670 390 5 0 0 0 - qu1 -;
#X floatatom 710 390 5 0 0 0 - qu2 -;
#X obj 398 186 tgl 15 0 empty edge empty 0 -6 0 8 -260818 -1 -1 0 1
;
#X obj 228 185 tgl 15 0 empty edge empty 0 -6 0 8 -260818 -1 -1 0 1
;
#X text 228 169 Quark;
#X obj 274 185 tgl 15 0 empty edge empty 0 -6 0 8 -260818 -1 -1 0 1
;
#X obj 912 194 pdp_nervous;
#X obj 914 162 pdp_spigot;
#X obj 318 185 tgl 15 0 empty aging empty 0 -6 0 8 -260818 -1 -1 0
1;
#X floatatom 345 185 5 0 0 0 - - -;
#X text 320 170 Nervous;
#X text 133 204 Warhol;
#X text 178 204 Edge;
#X text 395 171 RadioA;
#X text 275 170 Shaga;
#N canvas 96 78 809 457 graph1 0;
#N canvas 346 16 870 675 edge_detect 0;
#X obj 343 530 pdp_mul;
#X obj 132 421 inlet;
#X obj 234 621 outlet;
#X obj 133 442 pdp_trigger p p;
#X obj 344 499 pdp_conv;
#X obj 14 503 pdp_conv;
#X obj 47 150 loadbang;
#X floatatom 83 180 5 0 0 0 - - -;
#X obj 258 84 inlet;
#X obj 15 532 pdp_mul;
#X obj 95 256 / 2;
#X obj 47 213 t f f f;
#X obj 47 300 pack f f f;
#X obj 47 256 / 2;
#X msg 47 341 vmask \$1 \$2 \$3;
#X msg 168 341 hmask \$1 0 \$2;
#X obj 168 300 pack f f;
#X obj 168 212 t f f;
#X obj 206 255 * -1;
#X obj 325 148 loadbang;
#X floatatom 361 178 5 0 0 0 - - -;
#X obj 373 254 / 2;
#X obj 325 211 t f f f;
#X obj 325 298 pack f f f;
#X obj 325 254 / 2;
#X obj 446 298 pack f f;
#X obj 446 210 t f f;
#X obj 484 253 * -1;
#X msg 325 339 hmask \$1 \$2 \$3;
#X msg 446 339 vmask \$1 0 \$2;
#X text 245 57 Kernel's peak;
#X floatatom 120 231 5 0 0 0 - - -;
#X floatatom 241 224 5 0 0 0 - - -;
#X floatatom 1 217 5 0 0 0 - - -;
#X msg 47 179 10;
#X msg 325 177 10;
#X obj 234 584 pdp_add;
#X obj 492 416 pack f f f;
#X msg 349 407 hmask \$1 \$2 \$3;
#X floatatom 490 369 5 0 0 0 - - -;
#X floatatom 534 368 5 0 0 0 - - -;
#X floatatom 579 368 5 0 0 0 - - -;
#X obj 530 390 t b f;
#X obj 579 389 t b f;
#X msg 386 466 vmask \$1 \$2 \$3;
#X obj 520 495 pack f f f;
#X floatatom 518 448 5 0 0 0 - - -;
#X floatatom 562 447 5 0 0 0 - - -;
#X floatatom 607 447 5 0 0 0 - - -;
#X obj 558 469 t b f;
#X obj 607 468 t b f;
#X connect 0 0 36 1;
#X connect 1 0 3 0;
#X connect 3 0 5 0;
#X connect 3 1 4 0;
#X connect 4 0 0 1;
#X connect 4 0 0 0;
#X connect 5 0 9 1;
#X connect 5 0 9 0;
#X connect 6 0 34 0;
#X connect 7 0 11 0;
#X connect 7 0 17 0;
#X connect 8 0 7 0;
#X connect 8 0 20 0;
#X connect 9 0 36 0;
#X connect 10 0 12 2;
#X connect 11 0 13 0;
#X connect 11 1 12 1;
#X connect 11 2 10 0;
#X connect 12 0 14 0;
#X connect 13 0 12 0;
#X connect 14 0 5 0;
#X connect 15 0 5 0;
#X connect 16 0 15 0;
#X connect 17 0 16 0;
#X connect 17 1 18 0;
#X connect 18 0 16 1;
#X connect 19 0 35 0;
#X connect 20 0 22 0;
#X connect 20 0 26 0;
#X connect 21 0 23 2;
#X connect 22 0 24 0;
#X connect 22 1 23 1;
#X connect 22 2 21 0;
#X connect 23 0 28 0;
#X connect 24 0 23 0;
#X connect 25 0 29 0;
#X connect 26 0 25 0;
#X connect 26 1 27 0;
#X connect 27 0 25 1;
#X connect 28 0 4 0;
#X connect 29 0 4 0;
#X connect 31 0 10 1;
#X connect 31 0 21 1;
#X connect 32 0 18 1;
#X connect 32 0 27 1;
#X connect 33 0 13 1;
#X connect 33 0 24 1;
#X connect 34 0 11 0;
#X connect 34 0 17 0;
#X connect 35 0 22 0;
#X connect 35 0 26 0;
#X connect 36 0 2 0;
#X connect 37 0 38 0;
#X connect 38 0 4 0;
#X connect 38 0 5 0;
#X connect 39 0 37 0;
#X connect 40 0 42 0;
#X connect 41 0 43 0;
#X connect 42 0 37 0;
#X connect 42 1 37 1;
#X connect 43 0 37 0;
#X connect 43 1 37 2;
#X connect 44 0 4 0;
#X connect 44 0 5 0;
#X connect 45 0 44 0;
#X connect 46 0 45 0;
#X connect 47 0 49 0;
#X connect 48 0 50 0;
#X connect 49 0 45 0;
#X connect 49 1 45 1;
#X connect 50 0 45 0;
#X connect 50 1 45 2;
#X restore -114 168 pd edge_detect;
#N canvas 0 0 450 300 blur 0;
#X obj 26 33 inlet;
#X obj 26 174 outlet;
#X obj 26 134 pdp_bq;
#X obj 70 66 pdp_ut_addscaleclip -1 -0.5 0.05 0.48;
#X obj 70 33 inlet;
#X msg 181 34 2;
#X msg 70 98 lpf \$1 0.25;
#X msg 136 34 0;
#X obj 136 10 loadbang;
#X msg 163 98 hor 1;
#X msg 209 98 ver 1;
#X connect 0 0 2 0;
#X connect 2 0 1 0;
#X connect 3 0 6 0;
#X connect 4 0 3 0;
#X connect 5 0 2 1;
#X connect 6 0 2 0;
#X connect 7 0 3 0;
#X connect 8 0 7 0;
#X connect 8 0 5 0;
#X connect 8 0 9 0;
#X connect 8 0 10 0;
#X connect 9 0 2 0;
#X connect 10 0 2 0;
#X restore -114 247 pd blur;
#N canvas 0 0 450 300 invert 0;
#X obj 34 51 inlet;
#X obj 34 236 outlet;
#X obj 34 173 pdp_gain;
#X obj 34 100 pdp_cheby 1;
#X obj 153 24 loadbang;
#X msg 141 146 chanmask 6;
#X msg 153 58 chanmask 1 \, coef 0 1 \, coef 1 -1;
#X msg 141 120 -1;
#X connect 0 0 3 0;
#X connect 2 0 1 0;
#X connect 3 0 2 0;
#X connect 4 0 6 0;
#X connect 5 0 2 0;
#X connect 6 0 3 0;
#X connect 6 0 7 0;
#X connect 7 0 2 1;
#X connect 7 0 5 0;
#X restore -115 365 pd invert;
#X text -233 442 charcoal effect : made with basic pdp objects;
#X obj -114 215 pdp_spigot;
#X obj 126 16 tgl 15 0 empty empty empty 0 -6 0 8 -262144 -1 -1 0 1
;
#X obj -115 336 pdp_spigot;
#X obj 90 16 tgl 15 0 empty empty empty 0 -6 0 8 -262144 -1 -1 0 1
;
#X obj -114 80 pdp_spigot;
#X obj 52 16 tgl 15 0 empty empty empty 0 -6 0 8 -262144 -1 -1 0 1
;
#X obj -114 46 pdp_grey;
#X obj 15 16 tgl 15 0 empty empty empty 0 -6 0 8 -262144 -1 -1 0 1
;
#X text -233 456 monochrome + edge detection + blur + normalize + negate
;
#X obj -198 -13 inlet;
#X obj -114 17 pdp_spigot;
#X obj -115 396 outlet;
#X text 40 33 NoEdge;
#X text 115 33 NoBlur;
#X obj 159 18 hsl 50 10 0 0.5 0 0 empty empty empty -2 -6 0 8 -262144
-1 -1 0 1;
#X text 3 -1 NoGrey;
#X text 80 -1 NoInv;
#X obj -204 19 pdp_spigot;
#X obj -132 -13 inlet;
#X connect 0 0 4 0;
#X connect 1 0 6 0;
#X connect 2 0 15 0;
#X connect 4 0 1 0;
#X connect 4 1 6 0;
#X connect 5 0 4 1;
#X connect 6 0 2 0;
#X connect 6 1 15 0;
#X connect 7 0 6 1;
#X connect 8 0 0 0;
#X connect 8 1 4 0;
#X connect 9 0 8 1;
#X connect 10 0 8 0;
#X connect 11 0 14 1;
#X connect 13 0 21 0;
#X connect 14 0 10 0;
#X connect 14 1 8 0;
#X connect 18 0 1 1;
#X connect 21 0 15 0;
#X connect 21 1 14 0;
#X connect 22 0 21 1;
#X coords 0 1 100 -1 220 50 1 0 0;
#X restore 230 223 graph;
#X obj 228 208 tgl 12 0 empty empty empty 0 -6 0 8 -260818 -1 -1 0
1;
#X text 245 208 CHARCOAL;
#X connect 0 0 5 0;
#X connect 1 0 0 1;
#X connect 2 0 5 0;
#X connect 2 1 0 0;
#X connect 3 0 2 1;
#X connect 4 0 6 0;
#X connect 5 0 6 0;
#X connect 5 1 4 0;
#X connect 6 0 79 0;
#X connect 6 1 7 0;
#X connect 7 0 79 0;
#X connect 8 0 11 0;
#X connect 8 1 9 0;
#X connect 9 0 11 0;
#X connect 10 0 53 0;
#X connect 11 0 53 0;
#X connect 11 1 10 0;
#X connect 13 0 2 0;
#X connect 14 0 0 2;
#X connect 17 0 4 1;
#X connect 18 0 5 1;
#X connect 19 0 4 2;
#X connect 22 0 7 1;
#X connect 23 0 6 1;
#X connect 26 0 8 1;
#X connect 27 0 11 1;
#X connect 29 0 7 2;
#X connect 30 0 33 0;
#X connect 31 0 33 1;
#X connect 31 0 34 0;
#X connect 32 0 51 0;
#X connect 33 0 32 0;
#X connect 34 0 19 0;
#X connect 36 0 39 0;
#X connect 37 0 39 1;
#X connect 37 0 40 0;
#X connect 38 0 49 0;
#X connect 39 0 38 0;
#X connect 40 0 14 0;
#X connect 41 0 44 0;
#X connect 42 0 44 1;
#X connect 42 0 48 0;
#X connect 43 0 47 0;
#X connect 44 0 43 0;
#X connect 47 0 29 0;
#X connect 48 0 29 0;
#X connect 49 0 50 0;
#X connect 50 0 14 0;
#X connect 51 0 19 0;
#X connect 52 0 53 1;
#X connect 53 0 56 0;
#X connect 53 1 54 0;
#X connect 54 0 56 0;
#X connect 55 0 56 1;
#X connect 56 0 63 0;
#X connect 56 1 59 0;
#X connect 57 0 59 1;
#X connect 58 0 59 2;
#X connect 59 0 63 0;
#X connect 61 0 68 0;
#X connect 61 1 62 0;
#X connect 62 0 68 0;
#X connect 63 0 61 0;
#X connect 63 1 65 0;
#X connect 64 0 65 2;
#X connect 65 0 61 0;
#X connect 66 0 65 1;
#X connect 67 0 65 3;
#X connect 68 0 87 0;
#X connect 68 1 69 0;
#X connect 69 0 12 0;
#X connect 70 0 71 0;
#X connect 71 0 69 1;
#X connect 72 0 62 1;
#X connect 73 0 62 2;
#X connect 74 0 63 1;
#X connect 75 0 61 1;
#X connect 77 0 68 1;
#X connect 78 0 8 0;
#X connect 79 0 8 0;
#X connect 79 1 78 0;
#X connect 80 0 79 1;
#X connect 81 0 78 1;
#X connect 87 0 12 0;
#X connect 88 0 87 1;
#X coords 0 -1 1 1 400 180 1 100 100;
