#N canvas 1281 66 830 632 10;
#X obj 103 160 playlist all 400 170 {courier 12 normal} #293c43 navajowhite4
white red;
#X symbolatom 103 339 50 0 0 0 - - -;
#X msg 361 63 location ..;
#X obj 197 114 bng 15 250 50 0 empty empty empty 0 -6 0 8 -262144 -1
-1;
#X text 218 114 Back;
#N canvas 87 525 450 301 randomvid 0;
#X floatatom -87 -92 5 0 0 0 - - -;
#X obj -135 -117 random 1000;
#X floatatom -108 -169 5 0 0 0 - - -;
#X msg -85 -60 seek \$1;
#X obj -83 -7 outlet;
#X obj -13 -197 inlet;
#X obj -143 -197 inlet;
#X obj -64 -171 * 1000;
#X obj -136 -142 metro 10000;
#X obj 84 -150 loadbang;
#X msg 49 -112 10;
#X connect 0 0 3 0;
#X connect 1 0 0 0;
#X connect 2 0 8 1;
#X connect 3 0 4 0;
#X connect 5 0 7 0;
#X connect 6 0 8 0;
#X connect 7 0 2 0;
#X connect 8 0 1 0;
#X connect 9 0 10 0;
#X connect 10 0 7 0;
#X restore 110 -48 pd randomvid;
#X obj 277 111 tgl 15 0 empty auto1 empty 0 -6 0 8 -262144 -1 -1 0
1;
#X obj 303 111 hsl 64 15 10 0 0 0 empty empty empty -2 -6 0 8 -166441
-1 -1 0 1;
#N canvas 1281 468 450 300 video1 0;
#X obj 67 43 inlet;
#X obj 308 49 inlet;
#X obj 143 242 outlet;
#X floatatom 119 94 5 0 0 0 - - -;
#X floatatom 176 117 5 0 0 0 - - -;
#X text 227 117 Frame command;
#X obj 175 136 t b f;
#X obj 71 115 metro 50;
#X msg 59 225 loop 1;
#X obj 159 11 inlet;
#X msg 144 49 open \$1;
#X obj 38 169 loadbang;
#X obj 365 99 loadbang;
#X msg 330 137 127;
#X obj 144 167 pdp_qt;
#X connect 0 0 7 0;
#X connect 1 0 3 0;
#X connect 3 0 7 1;
#X connect 4 0 6 0;
#X connect 6 0 14 0;
#X connect 6 1 14 1;
#X connect 7 0 14 0;
#X connect 8 0 14 0;
#X connect 9 0 10 0;
#X connect 10 0 14 0;
#X connect 11 0 8 0;
#X connect 12 0 13 0;
#X connect 13 0 3 0;
#X connect 14 0 2 0;
#X restore 576 432 pd video1;
#X obj 607 503 outlet;
#X obj 303 128 hsl 64 15 50 0 0 0 empty empty empty -2 -6 0 8 -166441
-1 -1 0 1;
#X obj 674 16 loadbang;
#X obj 277 128 tgl 15 0 empty empty empty 0 -6 1 12 -262144 -44926
-1 1 1;
#X text 371 109 Randomness;
#X text 371 127 Speed;
#X msg 326 -51 font courier normal 12;
#X obj 459 137 bng 10 250 50 0 empty empty Negro 0 -6 0 10 -195568
-1 -1;
#X obj 459 114 bng 10 250 50 0 empty empty Blanco 0 -6 0 10 -195568
-1 -1;
#X msg 520 98 open /home/erwan/bastardvj/negro.mov;
#X obj 457 -11 inlet;
#X msg 518 74 open /home/erwan/bastardvj/blanco.mov;
#X connect 0 0 1 0;
#X connect 1 0 8 1;
#X connect 2 0 0 0;
#X connect 3 0 2 0;
#X connect 5 0 0 0;
#X connect 6 0 5 0;
#X connect 7 0 5 1;
#X connect 8 0 9 0;
#X connect 10 0 8 2;
#X connect 11 0 12 0;
#X connect 12 0 8 0;
#X connect 15 0 0 0;
#X connect 16 0 18 0;
#X connect 17 0 20 0;
#X connect 18 0 8 1;
#X connect 19 0 0 0;
#X connect 20 0 8 1;
#X coords 0 -1 1 1 410 260 1 100 100;
